#!OML:ASF I:\Actors\actors\Patient Classification 1\Patient 1\Session 1\Subject1.ASF
:FULLY-SPECIFIED
:DEGREES
476
root 0.571588 17.4843 10.0948 14.6323 -0.446852 -8.33177
lowerback -0.653638 -1.00626 4.76867
upperback -8.33194 -1.01188 2.34725
thorax -8.44026 -0.747418 -0.116797
lowerneck -12.7987 -2.17443 -2.04264
upperneck 22.9071 -4.121 6.12337
head 9.50991 -1.43893 1.96685
rclavicle 1.4561e-014 -1.23246e-014
rhumerus -34.3228 4.60562 -88.3641
rradius 103.798
rwrist 7.02981
rhand -4.31368 -32.0257
rfingers 7.12502
rthumb 21.4527 -420.858
lclavicle 1.4561e-014 -1.23246e-014
lhumerus 3.37105 -16.7449 93.7022
lradius 47.9882
lwrist 18.6871
lhand -34.3424 -15.809
lfingers 7.12502
lthumb -7.51008 14.0377
rfemur -5.87334 26.2527 24.1624
rtibia 1.17652
rfoot -13.6321 -28.2639
rtoes 8.01018
lfemur 4.964 -56.2799 -12.9445
ltibia -4.60565
lfoot -43.6601 60.7983
ltoes 22.8014
477
root 0.5733 17.4848 10.0883 14.669 -0.70598 -8.39153
lowerback -0.662297 -0.938743 4.80301
upperback -8.30086 -0.921533 2.35275
thorax -8.39815 -0.70424 -0.137385
lowerneck -12.8539 -2.18044 -2.07415
upperneck 22.8922 -4.1274 6.14855
head 9.51671 -1.44115 1.97962
rclavicle -1.69712e-014 -1.47101e-014
rhumerus -32.8877 5.53535 -88.3643
rradius 103.14
rwrist 7.36239
rhand -3.66307 -32.4097
rfingers 7.12502
rthumb 22.0775 -421.169
lclavicle -1.69712e-014 -1.47101e-014
lhumerus 3.41655 -16.8219 93.58
lradius 48.0464
lwrist 18.8034
lhand -34.3082 -15.7971
lfingers 7.12502
lthumb -7.47704 14.0508
rfemur -5.96377 26.2912 24.1552
rtibia 1.18726
rfoot -13.5794 -28.0953
rtoes 8.02642
lfemur 4.92305 -56.0701 -12.8945
ltibia -4.57735
lfoot -44.1649 60.6434
ltoes 23.2168
478
root 0.5747 17.4864 10.0784 14.707 -1.16869 -8.4606
lowerback -0.581353 -0.784951 4.83889
upperback -8.30375 -0.710599 2.31
thorax -8.44166 -0.605322 -0.21529
lowerneck -12.7994 -2.20873 -2.07698
upperneck 22.8261 -4.17352 6.1918
head 9.4865 -1.46045 1.98912
rclavicle 6.83322e-015 0
rhumerus -31.1849 6.6537 -88.3661
rradius 102.297
rwrist 7.36174
rhand -3.44821 -32.4439
rfingers 7.12502
rthumb 22.2837 -421.179
lclavicle 6.83322e-015 0
lhumerus 3.45272 -17.0119 93.4319
lradius 48.0494
lwrist 18.8972
lhand -34.3182 -15.702
lfingers 7.12502
lthumb -7.48672 14.1455
rfemur -6.10978 26.3536 24.1147
rtibia 1.22896
rfoot -13.3717 -27.7838
rtoes 7.62567
lfemur 5.03967 -55.9023 -12.9877
ltibia -4.58929
lfoot -45.1165 60.627
ltoes 23.7824
479
root 0.57849 17.4882 10.0665 14.7144 -1.64436 -8.50755
lowerback -0.474088 -0.61501 4.91968
upperback -8.28413 -0.478162 2.22115
thorax -8.47571 -0.500601 -0.368905
lowerneck -12.7488 -2.24773 -2.02823
upperneck 22.7416 -4.24491 6.23363
head 9.45097 -1.48752 1.9861
rclavicle -3.45388e-015 -2.22639e-014
rhumerus -29.1665 8.1036 -88.416
rradius 101.197
rwrist 6.59395
rhand -4.75234 -31.8698
rfingers 7.12502
rthumb 21.0314 -420.749
lclavicle -3.45388e-015 -2.22639e-014
lhumerus 3.53682 -17.2047 93.2818
lradius 48.0117
lwrist 18.9615
lhand -34.3625 -15.6045
lfingers 7.12502
lthumb -7.5295 14.2415
rfemur -6.20403 26.5033 24.0552
rtibia 1.21546
rfoot -13.1484 -27.5586
rtoes 7.22177
lfemur 5.21441 -55.7462 -13.1593
ltibia -4.59766
lfoot -45.9548 60.6218
ltoes 24.2494
480
root 0.585534 17.488 10.0546 14.7229 -2.16736 -8.54779
lowerback -0.399365 -0.421998 5.03637
upperback -8.24467 -0.218139 2.10362
thorax -8.46677 -0.385176 -0.576075
lowerneck -12.7754 -2.31098 -1.93701
upperneck 22.713 -4.35872 6.25542
head 9.45049 -1.53042 1.96385
rclavicle -6.68413e-015 -1.94809e-014
rhumerus -26.7763 9.38461 -88.2474
rradius 99.9044
rwrist 6.77383
rhand -5.25744 -31.1057
rfingers 7.12502
rthumb 20.546 -420.038
lclavicle -6.68413e-015 -1.94809e-014
lhumerus 3.65467 -17.3799 93.1438
lradius 48.0035
lwrist 19.0262
lhand -34.3434 -15.4766
lfingers 7.12502
lthumb -7.51102 14.37
rfemur -6.29373 26.6186 23.9733
rtibia 1.18872
rfoot -12.9024 -27.248
rtoes 6.84573
lfemur 5.41169 -55.5024 -13.3821
ltibia -4.59699
lfoot -46.653 60.5728
ltoes 24.8074
481
root 0.595211 17.4834 10.0374 14.8944 -2.99237 -8.58182
lowerback -0.365922 -0.117004 5.12106
upperback -8.27245 0.188913 1.95448
thorax -8.49715 -0.198056 -0.808662
lowerneck -12.7797 -2.396 -1.82051
upperneck 22.6535 -4.49213 6.21731
head 9.43367 -1.58788 1.91399
rclavicle 1.51822e-014 -1.07344e-014
rhumerus -24.0996 10.7329 -87.9493
rradius 98.3722
rwrist 7.09293
rhand -3.62242 -32.685
rfingers 7.12502
rthumb 22.1165 -421.44
lclavicle 1.51822e-014 -1.07344e-014
lhumerus 3.73116 -17.4791 93.0823
lradius 48.0482
lwrist 18.9744
lhand -34.3214 -15.3155
lfingers 7.12502
lthumb -7.48979 14.5319
rfemur -6.74056 26.4582 23.6968
rtibia 1.32175
rfoot -12.5543 -26.4004
rtoes 6.17706
lfemur 5.53133 -55.4837 -13.6446
ltibia -4.54113
lfoot -48.5794 60.6537
ltoes 25.9215
482
root 0.607811 17.4725 10.01 15.4435 -4.12966 -8.72461
lowerback -0.529679 0.343458 5.28878
upperback -8.39896 0.798934 1.81078
thorax -8.50586 0.0822005 -1.09411
lowerneck -12.8226 -2.58587 -1.95439
upperneck 22.4682 -4.75551 6.37716
head 9.39704 -1.70753 1.95776
rclavicle 1.58531e-014 -1.11319e-014
rhumerus -21.0677 12.168 -87.4555
rradius 96.5763
rwrist 7.25273
rhand -3.49865 -33.0084
rfingers 7.12502
rthumb 22.2353 -421.749
lclavicle 1.58531e-014 -1.11319e-014
lhumerus 3.82703 -17.5603 93.1099
lradius 48.1463
lwrist 18.9055
lhand -34.3211 -15.1891
lfingers 7.12502
lthumb -7.48947 14.6583
rfemur -7.9101 25.9228 23.2317
rtibia 1.75446
rfoot -12.0899 -24.8742
rtoes 5.0104
lfemur 5.13051 -55.7757 -13.4453
ltibia -4.40332
lfoot -52.1231 60.7856
ltoes 27.7279
483
root 0.605692 17.4862 10.0044 15.1127 -4.22444 -8.58239
lowerback -0.251471 0.422314 5.24038
upperback -8.20831 0.906564 1.68129
thorax -8.45004 0.137541 -1.21459
lowerneck -12.9757 -2.88229 -2.44931
upperneck 22.2234 -5.17515 6.92476
head 9.38994 -1.88752 2.17583
rclavicle -2.95692e-015 -4.77083e-015
rhumerus -17.6474 13.1656 -86.6307
rradius 94.4987
rwrist 8.59486
rhand -1.48206 -33.6854
rfingers 7.12502
rthumb 24.1701 -422.183
lclavicle -2.95692e-015 -4.77083e-015
lhumerus 3.97992 -17.7863 93.1317
lradius 48.3299
lwrist 19.0342
lhand -34.3381 -15.164
lfingers 7.12502
lthumb -7.50589 14.6828
rfemur -7.30287 26.6859 23.276
rtibia 1.4372
rfoot -12.1299 -25.6132
rtoes 5.18244
lfemur 5.73306 -55.576 -14.0446
ltibia -4.49537
lfoot -51.7926 60.7132
ltoes 27.7075
484
root 0.607919 17.4932 9.98902 15.0848 -4.66366 -8.4735
lowerback -0.0851083 0.638155 5.21942
upperback -8.12933 1.19348 1.51461
thorax -8.43948 0.275024 -1.40094
lowerneck -13.1403 -3.01475 -2.57905
upperneck 22.0889 -5.35333 7.06242
head 9.39171 -1.9654 2.22037
rclavicle -3.55328e-015 -1.15295e-014
rhumerus -14.1975 14.6847 -85.733
rradius 92.4709
rwrist 8.87811
rhand -1.08652 -34.3018
rfingers 7.12502
rthumb 24.5493 -422.748
lclavicle -3.55328e-015 -1.15295e-014
lhumerus 4.06555 -18.1254 93.1091
lradius 48.6374
lwrist 19.2707
lhand -34.3391 -15.2617
lfingers 7.12502
lthumb -7.50684 14.5851
rfemur -7.34612 26.9784 23.0572
rtibia 1.38182
rfoot -11.9668 -25.5719
rtoes 5.00426
lfemur 5.97836 -55.6645 -14.4432
ltibia -4.48557
lfoot -52.8279 60.7921
ltoes 28.294
485
root 0.612425 17.4958 9.96302 15.0589 -5.40373 -8.15359
lowerback 0.257859 0.926853 4.92714
upperback -8.09112 1.57334 1.26611
thorax -8.57097 0.470217 -1.53342
lowerneck -13.2962 -2.9871 -2.2705
upperneck 22.0406 -5.29227 6.7025
head 9.38196 -1.94696 2.04903
rclavicle 1.07344e-014 -2.38542e-015
rhumerus -10.7837 16.2487 -84.6636
rradius 90.4765
rwrist 8.87626
rhand -0.677875 -35.1197
rfingers 7.12502
rthumb 24.9409 -423.512
lclavicle 1.07344e-014 -2.38542e-015
lhumerus 4.09455 -18.4761 93.0668
lradius 49.0175
lwrist 19.4638
lhand -34.229 -15.3381
lfingers 7.12502
lthumb -7.40057 14.5125
rfemur -7.61624 27.1151 22.449
rtibia 1.4693
rfoot -11.7747 -25.1491
rtoes 4.85372
lfemur 6.26528 -55.9209 -15.2262
ltibia -4.36679
lfoot -54.8781 60.8393
ltoes 29.284
486
root 0.619829 17.494 9.91625 14.9447 -6.46857 -7.47302
lowerback 1.01207 1.25644 4.15039
upperback -8.1125 1.99907 0.932405
thorax -9.01696 0.711447 -1.50468
lowerneck -13.4263 -3.04225 -2.18516
upperneck 21.9299 -5.367 6.6474
head 9.36805 -1.97984 2.00388
rclavicle -1.35298e-014 -8.74653e-015
rhumerus -7.20962 17.4097 -83.5127
rradius 87.9334
rwrist 9.37975
rhand 0.39904 -35.2644
rfingers 7.12502
rthumb 25.9725 -423.51
lclavicle -1.35298e-014 -8.74653e-015
lhumerus 4.11733 -18.715 93.0478
lradius 49.3396
lwrist 19.4879
lhand -34.0759 -15.3196
lfingers 7.12502
lthumb -7.25284 14.5361
rfemur -8.16531 27.2136 21.258
rtibia 1.79948
rfoot -11.5121 -24.4662
rtoes 4.57894
lfemur 6.41821 -56.0391 -16.3814
ltibia -4.14199
lfoot -57.1706 60.7445
ltoes 30.4699
487
root 0.632127 17.4875 9.91407 15.7062 -6.68478 -8.37862
lowerback 0.365734 1.52118 5.34351
upperback -8.23282 2.38914 1.00127
thorax -8.71796 0.824549 -2.10825
lowerneck -13.5516 -3.15663 -2.24498
upperneck 21.8252 -5.54265 6.80113
head 9.37108 -2.04936 2.04286
rclavicle 2.36057e-014 -3.53837e-014
rhumerus -3.58964 18.287 -82.2999
rradius 85.0196
rwrist 10.296
rhand 1.39536 -34.6938
rfingers 7.12502
rthumb 26.9262 -422.796
lclavicle 2.36057e-014 -3.53837e-014
lhumerus 4.10351 -18.9947 93.0786
lradius 49.6133
lwrist 19.4386
lhand -34.017 -15.2495
lfingers 7.12502
lthumb -7.19597 14.6081
rfemur -9.07014 26.3628 21.9197
rtibia 1.89765
rfoot -11.1012 -23.2225
rtoes 3.70817
lfemur 5.54301 -56.2093 -14.7334
ltibia -4.18687
lfoot -58.6135 60.8593
ltoes 30.9901
488
root 0.62841 17.5009 9.91554 15.4572 -6.2285 -8.48894
lowerback 0.570889 1.47984 5.69683
upperback -8.073 2.35767 0.95444
thorax -8.65442 0.785998 -2.35641
lowerneck -13.817 -3.33203 -2.46743
upperneck 21.7343 -5.78734 7.04676
head 9.41721 -2.15074 2.13054
rclavicle -4.74598e-015 -1.59028e-015
rhumerus -0.410659 18.6064 -81.2099
rradius 82.4829
rwrist 11.7718
rhand 2.58677 -33.6791
rfingers 7.12502
rthumb 28.0656 -421.6
lclavicle -4.74598e-015 -1.59028e-015
lhumerus 4.21491 -19.4742 93.0884
lradius 49.8537
lwrist 19.5075
lhand -34.0839 -15.272
lfingers 7.12502
lthumb -7.26057 14.5834
rfemur -8.36179 26.9577 22.3524
rtibia 1.41862
rfoot -11.2053 -24.1813
rtoes 4.24993
lfemur 5.71027 -55.8816 -14.5975
ltibia -4.26291
lfoot -56.9782 60.7355
ltoes 30.3783
489
root 0.625516 17.5081 9.90149 15.3644 -6.24232 -8.44393
lowerback 0.849249 1.58951 5.73546
upperback -7.97643 2.51761 0.850727
thorax -8.69305 0.858182 -2.50759
lowerneck -14.0723 -3.57268 -2.81152
upperneck 21.5587 -6.1339 7.48538
head 9.44985 -2.29038 2.29143
rclavicle 3.36692e-015 -8.34896e-015
rhumerus 3.87089 20.2309 -78.7562
rradius 79.2278
rwrist 12.253
rhand 3.65505 -33.2021
rfingers 7.12502
rthumb 29.0863 -420.951
lclavicle 3.36692e-015 -8.34896e-015
lhumerus 4.40463 -20.0453 93.0449
lradius 50.0412
lwrist 19.7023
lhand -34.1391 -15.5299
lfingers 7.12502
lthumb -7.3138 14.3237
rfemur -8.22496 27.3859 22.3401
rtibia 1.295
rfoot -11.1722 -24.6083
rtoes 4.43137
lfemur 5.79671 -55.9811 -14.6992
ltibia -4.24905
lfoot -57.0644 60.8067
ltoes 30.3035
